<svg id="Capa_1" data-name="Capa 1" xmlns="http://www.w3.org/2000/svg" xmlns:xlink="http://www.w3.org/1999/xlink" viewBox="0 0 170.17 42"><defs><style>.cls-1{fill:#ffcf00;}.cls-2{fill:#4c5859;}.cls-3{opacity:0.1;isolation:isolate;fill:url(#Degradado_sin_nombre);}.cls-4{fill:#37474f;}</style><radialGradient id="Degradado_sin_nombre" cx="-1665.5" cy="1403.61" r="2.19" gradientTransform="matrix(-6, 0, 0, 1.05, -9980, -1441.25)" gradientUnits="userSpaceOnUse"><stop offset="0" stop-color="#304346"/><stop offset="1" stop-color="#4b5759" stop-opacity="0"/></radialGradient></defs><title>eggsocial</title><g id="Group-2"><g id="Group-6"><g id="Group-3"><path id="Fill-1" class="cls-1" d="M13,36.34C-8.9,36.34,1.4.24,13,.24s21.9,36.1,0,36.1"/></g><path id="Fill-4" class="cls-2" d="M17.1,5.6c.1,0-1.3,4.5-1.3,5.4s1,1.5,1.3,2.7c.1.9-.5,1.7-.4,2.3.2.9,1.7.6,1.8,1.5-.1,1.1-.8,1.7-1,2.7.3.1.6.1.7.2s-3,4.4-2.7,5.3c-.6-.7.2-1.6.6-2.3a12,12,0,0,0,1.1-2.3c-.1-.2-.6,0-.6-.3.2-1.2,1-2.3.9-3,.1-.3-1.3-1.3-2.4-2-.8-.4-1-.9-3.7-.7-.2,0-.7-.2-.7-.5.7,1,1.8-.3,3,0,.9.2,2,.7,2.3.7a1.41,1.41,0,0,0,.4-1.4c-.2-.7-1.1-1.1-1.3-2-.3-1.1.6-3.3.6-3.3a20.18,20.18,0,0,1,1.4-3"/></g><path id="Fill-7" class="cls-3" d="M13,42c7.2,0,13-1.3,13-3s-5.8-3-13-3S0,37.3,0,39,5.8,42,13,42Z"/></g><path class="cls-4" d="M31.08,18.58c.08-.51.1-1,.21-1.53a7.51,7.51,0,0,1,7.29-6,7.41,7.41,0,0,1,5.91,2.46,7.77,7.77,0,0,1,1.94,6.1c0,.39,0,.39-.43.39H35.49c-.34,0-.34,0-.25.34a3.32,3.32,0,0,0,2.85,2.75,3.57,3.57,0,0,0,3.78-1.55.26.26,0,0,1,.24-.13h3.83c.18,0,.18.07.13.21a7.39,7.39,0,0,1-6.36,5,7.39,7.39,0,0,1-6-1.83,7.61,7.61,0,0,1-2.57-5.31c0-.14,0-.28,0-.42Zm11.39-1.34c-.09-.22-.15-.41-.24-.59a3.62,3.62,0,0,0-3.76-2.19A3.44,3.44,0,0,0,35.35,17c-.07.22,0,.27.19.27h6.93Z"/><path class="cls-4" d="M60.67,12.89c.19-.42.38-.83.55-1.25a.29.29,0,0,1,.32-.21q1.07,0,2.14,0c.18,0,.22.06.22.23,0,4.42,0,8.85,0,13.27a6.9,6.9,0,0,1-2.18,5.24,6.81,6.81,0,0,1-3.61,1.68,9.84,9.84,0,0,1-5-.38,6.36,6.36,0,0,1-4.26-4.58c0-.08,0-.16-.05-.24a.63.63,0,0,1,0-.1h3.73c.1,0,.21,0,.27.1a3.14,3.14,0,0,0,2.33,1.79,4.21,4.21,0,0,0,3-.3A3.22,3.22,0,0,0,60,25.36c0-.22,0-.45,0-.67a.42.42,0,0,0,0-.09,7.43,7.43,0,0,1-6.33,1,7,7,0,0,1-4-2.93A7.6,7.6,0,0,1,50.68,13,7.42,7.42,0,0,1,60.67,12.89ZM60,18.48a3.79,3.79,0,1,0-7.57,0,3.79,3.79,0,1,0,7.57,0Z"/><path class="cls-4" d="M78.41,24.6a7.47,7.47,0,0,1-10.22-1.75A7.6,7.6,0,0,1,69.13,13a7.41,7.41,0,0,1,10-.11c.18-.41.38-.81.54-1.22a.35.35,0,0,1,.4-.25c.67,0,1.34,0,2,0,.24,0,.29.07.29.3q0,5.54,0,11.07c0,.71,0,1.41,0,2.12A7.65,7.65,0,0,1,81.16,29a6.47,6.47,0,0,1-4.35,2.82,9.74,9.74,0,0,1-5.26-.33,6.35,6.35,0,0,1-4.25-4.59c-.08-.32-.08-.32.26-.32H71c.11,0,.22,0,.29.12a3,3,0,0,0,2.13,1.72,4.24,4.24,0,0,0,3.32-.3,3.21,3.21,0,0,0,1.71-2.74C78.43,25.13,78.41,24.88,78.41,24.6Zm0-6.12a3.79,3.79,0,1,0-7.57,0,3.79,3.79,0,1,0,7.57,0Z"/><path class="cls-4" d="M155.22,12.81c.12-.41.24-.8.35-1.18a.23.23,0,0,1,.26-.2h2.57c.18,0,.23.05.23.23q0,7.2,0,14.39c0,.17-.06.21-.21.21h-2.73a.2.2,0,0,1-.24-.18c-.09-.38-.2-.75-.31-1.16a6.91,6.91,0,0,1-2.07,1.27,7.65,7.65,0,0,1-10.36-5.85,7.81,7.81,0,0,1,1.68-6.63A7.41,7.41,0,0,1,150,11a7.28,7.28,0,0,1,5.14,1.7ZM150.67,22.9a3.94,3.94,0,0,0,4-4.06,4,4,0,1,0-8.08,0A4,4,0,0,0,150.67,22.9Z"/><path class="cls-4" d="M99.67,18.72a7.65,7.65,0,0,1,7.07-7.65,8.16,8.16,0,0,1,5.79,1.45,7.4,7.4,0,0,1,3.16,6.41,7.59,7.59,0,0,1-6.79,7.66,7.87,7.87,0,0,1-7.61-2.92A7.68,7.68,0,0,1,99.67,18.72Zm12,.09c0-.09,0-.23,0-.37a3.93,3.93,0,0,0-5.95-3.15,3.83,3.83,0,0,0-1.92,3.83A3.63,3.63,0,0,0,106,22.53a4,4,0,0,0,4.2-.47A3.93,3.93,0,0,0,111.65,18.81Z"/><path class="cls-4" d="M131,17.11h-1.72a.34.34,0,0,1-.37-.22,3.81,3.81,0,0,0-5.53-1.48,3.89,3.89,0,0,0-1.72,3.7,3.8,3.8,0,0,0,2.46,3.53,3.7,3.7,0,0,0,4.78-2,.4.4,0,0,1,.42-.26h3.48c.2,0,.25,0,.21.25a7.46,7.46,0,0,1-6.61,6,7.77,7.77,0,0,1-6.71-2.38,7.59,7.59,0,0,1-2.1-5.72,7.42,7.42,0,0,1,3.34-6.16,7.94,7.94,0,0,1,5.4-1.31,7.3,7.3,0,0,1,4.9,2.41A7.47,7.47,0,0,1,133,16.9c0,.19,0,.21-.17.21Z"/><path class="cls-4" d="M87.22,21.39H89c.12,0,.21,0,.24.17a1.83,1.83,0,0,0,1.53,1.7,3.4,3.4,0,0,0,2-.06,1.71,1.71,0,0,0,.77-.51,1.11,1.11,0,0,0-.28-1.76,5.6,5.6,0,0,0-1.91-.57,13.89,13.89,0,0,1-3.33-.86,4.13,4.13,0,0,1-1.67-6.17,5.21,5.21,0,0,1,3.24-2.08,7.9,7.9,0,0,1,4.77.26,4.65,4.65,0,0,1,3.17,4.21c0,.2,0,.27-.24.26H93.85c-.14,0-.23,0-.25-.19a1.56,1.56,0,0,0-1.31-1.46,3.53,3.53,0,0,0-1.83,0,1.5,1.5,0,0,0-.8.51,1.07,1.07,0,0,0,.3,1.65,5.22,5.22,0,0,0,1.65.51,21.77,21.77,0,0,1,3.28.75,3.87,3.87,0,0,1,2.49,2.13,4.67,4.67,0,0,1-1.89,5.78,7.64,7.64,0,0,1-4.16,1,6.93,6.93,0,0,1-3.81-1.07,4.84,4.84,0,0,1-2.24-4c0-.2,0-.26.25-.26C86.09,21.39,86.66,21.39,87.22,21.39Z"/><path class="cls-4" d="M162.48,16.16q0-4.89,0-9.78c0-.24.06-.3.29-.3q1.73,0,3.46,0c.22,0,.27.07.27.27q0,9.82,0,19.64c0,.21-.06.25-.26.25-1.16,0-2.32,0-3.48,0-.23,0-.28-.06-.28-.28Q162.49,21.07,162.48,16.16Z"/><path class="cls-4" d="M135.73,18.82c0-2.37,0-4.73,0-7.1,0-.23,0-.3.29-.3,1.15,0,2.3,0,3.46,0,.21,0,.27.06.27.27q0,7.15,0,14.31c0,.2-.05.25-.25.25q-1.74,0-3.48,0c-.22,0-.28-.05-.28-.28C135.73,23.59,135.73,21.21,135.73,18.82Z"/><path class="cls-4" d="M137.72,9.45H136c-.18,0-.23-.06-.22-.23q0-1.63,0-3.27c0-.16,0-.22.21-.22h3.56c.17,0,.21.05.21.22,0,1.09,0,2.18,0,3.27,0,.2-.07.23-.25.23Z"/></svg>